<?xml version="1.0" encoding="UTF-8"?>
<svg id="Ebene_2" data-name="Ebene 2" xmlns="http://www.w3.org/2000/svg" xmlns:xlink="http://www.w3.org/1999/xlink" viewBox="0 0 3206.61 500">
  <defs>
    <style>
      .cls-1 {
        fill: url(#Unbenannter_Verlauf_3-5);
      }

      .cls-2 {
        fill: url(#Unbenannter_Verlauf_3-3);
      }

      .cls-3 {
        fill: url(#Unbenannter_Verlauf_3-4);
      }

      .cls-4 {
        fill: url(#Unbenannter_Verlauf_3);
      }

      .cls-5 {
        fill: #9e9e9e;
      }

      .cls-6 {
        fill: url(#Unbenannter_Verlauf_3-2);
      }
    </style>
    <linearGradient id="Unbenannter_Verlauf_3" data-name="Unbenannter Verlauf 3" x1="855" y1="485" x2="1115" y2="485" gradientUnits="userSpaceOnUse">
      <stop offset="0" stop-color="#6349c0"/>
      <stop offset="1" stop-color="#01bafb"/>
    </linearGradient>
    <linearGradient id="Unbenannter_Verlauf_3-2" data-name="Unbenannter Verlauf 3" x1="220.21" y1="216.81" x2="420.78" y2="216.81" xlink:href="#Unbenannter_Verlauf_3"/>
    <linearGradient id="Unbenannter_Verlauf_3-3" data-name="Unbenannter Verlauf 3" x1="0" y1="212.5" x2="425" y2="212.5" xlink:href="#Unbenannter_Verlauf_3"/>
    <linearGradient id="Unbenannter_Verlauf_3-4" data-name="Unbenannter Verlauf 3" x1="732.57" y1="320.68" x2="795" y2="320.68" xlink:href="#Unbenannter_Verlauf_3"/>
    <linearGradient id="Unbenannter_Verlauf_3-5" data-name="Unbenannter Verlauf 3" x1="1262" y1="212.5" x2="1687" y2="212.5" gradientTransform="translate(2057) rotate(-180) scale(1 -1)" xlink:href="#Unbenannter_Verlauf_3"/>
  </defs>
  <g id="GA_universe">
    <g>
      <path class="cls-5" d="M1431.4,229.8v188.8c0,4-1.6,5.6-5.6,5.6h-14.4c-3.6,0-5.6-1.6-5.6-5.6v-15.6h-2.8c-10.8,14.8-21.2,22.8-56,22.8h-102.4c-46,0-69.6-23.6-69.6-68.8v-127.2c0-4,1.6-5.6,5.6-5.6h14.4c4,0,5.6,1.6,5.6,5.6v126.4c0,32,15.2,45.6,44.8,45.6h115.6c29.6,0,44.8-13.6,44.8-45.6v-126.4c0-4,2-5.6,6-5.6h14c4,0,5.6,1.6,5.6,5.6Z"/>
      <path class="cls-5" d="M1464.56,418.6V229.8c0-4,1.6-5.6,5.6-5.6h14.4c4,0,5.6,1.6,5.6,5.6v15.2h2.8c10.8-14.4,21.2-22.4,56-22.4h102.8c45.6,0,69.2,23.6,69.2,68.8v127.2c0,4-1.6,5.6-5.6,5.6h-14c-4,0-6-1.6-6-5.6v-126.4c0-32-15.2-45.6-44.8-45.6h-115.6c-29.6,0-44.8,13.6-44.8,45.6v126.4c0,4-1.6,5.6-5.6,5.6h-14.4c-4,0-5.6-1.6-5.6-5.6Z"/>
      <path class="cls-5" d="M1759.19,144.2h14.4c4,0,5.6,1.6,5.6,5.6v14c0,4-1.6,6-5.6,6h-14.4c-4,0-5.6-2-5.6-6v-14c0-4,1.6-5.6,5.6-5.6Zm0,80h14.4c4,0,5.6,1.6,5.6,5.6v188.8c0,4-1.6,5.6-5.6,5.6h-14.4c-4,0-5.6-1.6-5.6-5.6V229.8c0-4,1.6-5.6,5.6-5.6Z"/>
      <path class="cls-5" d="M1810.71,224.2h18c4,0,6,2.8,8.4,6.8l105.6,163.6h4.4l105.6-163.6c2.4-4,4.4-6.8,8.4-6.8h18c4,0,6.4,2.4,3.6,6.8l-121.2,186c-2.8,4.4-5.2,7.2-8.8,7.2h-15.6c-3.6,0-6-2.8-8.8-7.2l-121.2-186c-2.8-4.4-.4-6.8,3.6-6.8Z"/>
      <path class="cls-5" d="M2356.54,291.4v26.8c0,12-4.4,16.4-16.8,16.4h-213.2v22.4c0,31.6,15.6,45.2,44.8,45.2h109.2c29.2,0,37.6-1.6,52-11.2,2.8-2,5.2-2.4,8.8-.4l9.2,4.8c3.2,1.6,2.4,3.6,0,6.8-10.8,14.4-24.8,24-70,24h-110.4c-46,0-69.2-23.6-69.2-68v-67.2c0-45.2,23.2-68.4,69.2-68.4h117.2c45.6,0,69.2,24,69.2,68.8Zm-25.6,.8c0-32-15.6-45.6-45.2-45.6h-114.4c-29.2,0-44.8,13.6-44.8,45.6v21.6h204.4v-21.6Z"/>
      <path class="cls-5" d="M2385.94,418.6V229.8c0-4,1.6-5.6,5.6-5.6h14.4c4,0,5.6,1.6,5.6,5.6v15.2h2.8c10.8-14.4,21.2-22.4,56-22.4h104c45.6,0,64,17.2,64,47.2,0,6.4-1.6,8.4-6.8,8.4h-12c-4.8,0-6.4-1.6-6.8-5.2-2-18.8-12.4-26.4-42.4-26.4h-114c-29.6,0-44.8,13.6-44.8,45.6v126.4c0,4-1.6,5.6-5.6,5.6h-14.4c-4,0-5.6-1.6-5.6-5.6Z"/>
      <path class="cls-5" d="M2665.7,376.6c0-6,1.6-8.4,6.8-8.4h12c4.8,0,6.4,1.6,6.8,5.6,2,18.4,12.4,27.2,42.4,27.2h122.4c24.8,0,40.8-7.6,40.8-30.8,0-24.4-13.2-31.6-40-32.8l-126-5.2c-42.4-1.6-64.4-16.8-64.4-54.8s25.6-53.2,65.6-53.2h119.2c45.6,0,64.4,17.6,64.4,47.6,0,6-1.6,8.4-6.8,8.4h-12c-4.4,0-6.4-2-6.8-5.6-2-18.4-12.4-27.2-42.4-27.2h-115.2c-24.8,0-40.4,7.6-40.4,30,0,24.4,13.2,32,39.6,33.2l126,5.2c42.4,1.6,64.8,16.4,64.8,54.4s-26,54-65.6,54h-126.8c-45.6,0-64.4-17.6-64.4-47.6Z"/>
      <path class="cls-5" d="M3206.61,291.4v26.8c0,12-4.4,16.4-16.8,16.4h-213.2v22.4c0,31.6,15.6,45.2,44.8,45.2h109.2c29.2,0,37.6-1.6,52-11.2,2.8-2,5.2-2.4,8.8-.4l9.2,4.8c3.2,1.6,2.4,3.6,0,6.8-10.8,14.4-24.8,24-70,24h-110.4c-46,0-69.2-23.6-69.2-68v-67.2c0-45.2,23.2-68.4,69.2-68.4h117.2c45.6,0,69.2,24,69.2,68.8Zm-25.6,.8c0-32-15.6-45.6-45.2-45.6h-114.4c-29.2,0-44.8,13.6-44.8,45.6v21.6h204.4v-21.6Z"/>
    </g>
    <rect class="cls-4" x="855" y="470" width="260" height="30"/>
    <g>
      <rect class="cls-6" x="220.21" y="189.9" width="200.57" height="53.82"/>
      <path class="cls-2" d="M362.47,206.97c.07,1.84,.1,3.68,.1,5.53,0,82.75-67.32,150.07-150.07,150.07S62.43,295.25,62.43,212.5,129.75,62.43,212.5,62.43c24.44,0,48.51,6.04,69.96,17.35l42.34-47.6c-2.46-1.53-4.9-3.1-7.44-4.54C285.54,9.56,249.28,0,212.5,0,95.33,0,0,95.33,0,212.5s95.33,212.5,212.5,212.5,212.5-95.33,212.5-212.5c0-2.62-.05-5.24-.14-7.82-.18-4.97-.56-9.9-1.07-14.79h-62.95c.84,5.61,1.43,11.3,1.63,17.07Z"/>
    </g>
    <g>
      <rect class="cls-3" x="732.57" y="216.36" width="62.43" height="208.64"/>
      <path class="cls-1" d="M732.57,363.15c38.75-38.52,62.43-91.82,62.43-150.65C795,95.33,699.67,0,582.5,0s-212.5,95.33-212.5,212.5,95.33,212.5,212.5,212.5c31.1,0,60.64-6.77,87.29-18.83l.03-71.86c-24.63,17.71-54.73,28.26-87.32,28.26-82.75,0-150.07-67.32-150.07-150.07S499.75,62.43,582.5,62.43s150.07,67.32,150.07,150.07v150.65Z"/>
    </g>
  </g>
</svg>